<svg xmlns="http://www.w3.org/2000/svg" width="1152" height="864" fill="none"><mask id="b" width="864" height="864" x="144" y="0" maskUnits="userSpaceOnUse" style="mask-type:alpha"><path fill="url(#a)" d="M0 0h864v864H0z" transform="translate(144)"/></mask><g mask="url(#b)"><g clip-path="url(#c)"><mask id="d" fill="#fff"><path d="M115.2 0h57.6v57.6h-57.6V0Z"/></mask><path fill="#D0D5DD" d="M172.8 57.6v.6h.6v-.6h-.6ZM172.2 0v57.6h1.2V0h-1.2Zm.6 57h-57.6v1.2h57.6V57Z" mask="url(#d)"/><mask id="e" fill="#fff"><path d="M172.8 0h57.6v57.6h-57.6V0Z"/></mask><path fill="#D0D5DD" d="M230.4 57.6v.6h.6v-.6h-.6ZM229.8 0v57.6h1.2V0h-1.2Zm.6 57h-57.6v1.2h57.6V57Z" mask="url(#e)"/><mask id="f" fill="#fff"><path d="M230.4 0H288v57.6h-57.6V0Z"/></mask><path fill="#D0D5DD" d="M288 57.6v.6h.6v-.6h-.6ZM287.4 0v57.6h1.2V0h-1.2Zm.6 57h-57.6v1.2H288V57Z" mask="url(#f)"/><mask id="g" fill="#fff"><path d="M288 0h57.6v57.6H288V0Z"/></mask><path fill="#D0D5DD" d="M345.6 57.6v.6h.6v-.6h-.6ZM345 0v57.6h1.2V0H345Zm.6 57H288v1.2h57.6V57Z" mask="url(#g)"/><mask id="h" fill="#fff"><path d="M345.6 0h57.6v57.6h-57.6V0Z"/></mask><path fill="#D0D5DD" d="M403.2 57.6v.6h.6v-.6h-.6ZM402.6 0v57.6h1.2V0h-1.2Zm.6 57h-57.6v1.2h57.6V57Z" mask="url(#h)"/><mask id="i" fill="#fff"><path d="M403.2 0h57.6v57.6h-57.6V0Z"/></mask><path fill="#D0D5DD" d="M460.8 57.6v.6h.6v-.6h-.6ZM460.2 0v57.6h1.2V0h-1.2Zm.6 57h-57.6v1.2h57.6V57Z" mask="url(#i)"/><mask id="j" fill="#fff"><path d="M460.8 0h57.6v57.6h-57.6V0Z"/></mask><path fill="#D0D5DD" d="M518.4 57.6v.6h.6v-.6h-.6ZM517.8 0v57.6h1.2V0h-1.2Zm.6 57h-57.6v1.2h57.6V57Z" mask="url(#j)"/><mask id="k" fill="#fff"><path d="M518.4 0H576v57.6h-57.6V0Z"/></mask><path fill="#D0D5DD" d="M576 57.6v.6h.6v-.6h-.6ZM575.4 0v57.6h1.2V0h-1.2Zm.6 57h-57.6v1.2H576V57Z" mask="url(#k)"/><mask id="l" fill="#fff"><path d="M576 0h57.6v57.6H576V0Z"/></mask><path fill="#D0D5DD" d="M633.6 57.6v.6h.6v-.6h-.6ZM633 0v57.6h1.2V0H633Zm.6 57H576v1.2h57.6V57Z" mask="url(#l)"/><mask id="m" fill="#fff"><path d="M633.6 0h57.6v57.6h-57.6V0Z"/></mask><path fill="#D0D5DD" d="M691.2 57.6v.6h.6v-.6h-.6ZM690.6 0v57.6h1.2V0h-1.2Zm.6 57h-57.6v1.2h57.6V57Z" mask="url(#m)"/><mask id="n" fill="#fff"><path d="M691.2 0h57.6v57.6h-57.6V0Z"/></mask><path fill="#D0D5DD" d="M748.8 57.6v.6h.6v-.6h-.6ZM748.2 0v57.6h1.2V0h-1.2Zm.6 57h-57.6v1.2h57.6V57Z" mask="url(#n)"/><mask id="o" fill="#fff"><path d="M748.8 0h57.6v57.6h-57.6V0Z"/></mask><path fill="#D0D5DD" d="M806.4 57.6v.6h.6v-.6h-.6ZM805.8 0v57.6h1.2V0h-1.2Zm.6 57h-57.6v1.2h57.6V57Z" mask="url(#o)"/><mask id="p" fill="#fff"><path d="M806.4 0H864v57.6h-57.6V0Z"/></mask><path fill="#D0D5DD" d="M864 57.6v.6h.6v-.6h-.6ZM863.4 0v57.6h1.2V0h-1.2Zm.6 57h-57.6v1.2H864V57Z" mask="url(#p)"/><mask id="q" fill="#fff"><path d="M864 0h57.6v57.6H864V0Z"/></mask><path fill="#D0D5DD" d="M921.6 57.6v.6h.6v-.6h-.6ZM921 0v57.6h1.2V0H921Zm.6 57H864v1.2h57.6V57Z" mask="url(#q)"/><mask id="r" fill="#fff"><path d="M921.6 0h57.6v57.6h-57.6V0Z"/></mask><path fill="#D0D5DD" d="M979.2 57.6v.6h.6v-.6h-.6ZM978.6 0v57.6h1.2V0h-1.2Zm.6 57h-57.6v1.2h57.6V57Z" mask="url(#r)"/><mask id="s" fill="#fff"><path d="M979.2 0h57.6v57.6h-57.6V0Z"/></mask><path fill="#D0D5DD" d="M1036.8 57.6v.6h.6v-.6h-.6Zm-.6-57.6v57.6h1.2V0h-1.2Zm.6 57h-57.6v1.2h57.6V57Z" mask="url(#s)"/><mask id="t" fill="#fff"><path d="M115.2 57.6h57.6v57.6h-57.6V57.6Z"/></mask><path fill="#D0D5DD" d="M172.8 115.2v.6h.6v-.6h-.6Zm-.6-57.6v57.6h1.2V57.6h-1.2Zm.6 57h-57.6v1.2h57.6v-1.2Z" mask="url(#t)"/><mask id="u" fill="#fff"><path d="M172.8 57.6h57.6v57.6h-57.6V57.6Z"/></mask><path fill="#D0D5DD" d="M230.4 115.2v.6h.6v-.6h-.6Zm-.6-57.6v57.6h1.2V57.6h-1.2Zm.6 57h-57.6v1.2h57.6v-1.2Z" mask="url(#u)"/><mask id="v" fill="#fff"><path d="M230.4 57.6H288v57.6h-57.6V57.6Z"/></mask><path fill="#D0D5DD" d="M288 115.2v.6h.6v-.6h-.6Zm-.6-57.6v57.6h1.2V57.6h-1.2Zm.6 57h-57.6v1.2H288v-1.2Z" mask="url(#v)"/><mask id="w" fill="#fff"><path d="M288 57.6h57.6v57.6H288V57.6Z"/></mask><path fill="#F2F4F7" d="M288 57.6h57.6v57.6H288V57.6Z"/><path fill="#D0D5DD" d="M345.6 115.2v.6h.6v-.6h-.6Zm-.6-57.6v57.6h1.2V57.6H345Zm.6 57H288v1.2h57.6v-1.2Z" mask="url(#w)"/><mask id="x" fill="#fff"><path d="M345.6 57.6h57.6v57.6h-57.6V57.6Z"/></mask><path fill="#D0D5DD" d="M403.2 115.2v.6h.6v-.6h-.6Zm-.6-57.6v57.6h1.2V57.6h-1.2Zm.6 57h-57.6v1.2h57.6v-1.2Z" mask="url(#x)"/><mask id="y" fill="#fff"><path d="M403.2 57.6h57.6v57.6h-57.6V57.6Z"/></mask><path fill="#D0D5DD" d="M460.8 115.2v.6h.6v-.6h-.6Zm-.6-57.6v57.6h1.2V57.6h-1.2Zm.6 57h-57.6v1.2h57.6v-1.2Z" mask="url(#y)"/><mask id="z" fill="#fff"><path d="M460.8 57.6h57.6v57.6h-57.6V57.6Z"/></mask><path fill="#D0D5DD" d="M518.4 115.2v.6h.6v-.6h-.6Zm-.6-57.6v57.6h1.2V57.6h-1.2Zm.6 57h-57.6v1.2h57.6v-1.2Z" mask="url(#z)"/><mask id="A" fill="#fff"><path d="M518.4 57.6H576v57.6h-57.6V57.6Z"/></mask><path fill="#D0D5DD" d="M576 115.2v.6h.6v-.6h-.6Zm-.6-57.6v57.6h1.2V57.6h-1.2Zm.6 57h-57.6v1.2H576v-1.2Z" mask="url(#A)"/><mask id="B" fill="#fff"><path d="M576 57.6h57.6v57.6H576V57.6Z"/></mask><path fill="#D0D5DD" d="M633.6 115.2v.6h.6v-.6h-.6Zm-.6-57.6v57.6h1.2V57.6H633Zm.6 57H576v1.2h57.6v-1.2Z" mask="url(#B)"/><mask id="C" fill="#fff"><path d="M633.6 57.6h57.6v57.6h-57.6V57.6Z"/></mask><path fill="#D0D5DD" d="M691.2 115.2v.6h.6v-.6h-.6Zm-.6-57.6v57.6h1.2V57.6h-1.2Zm.6 57h-57.6v1.2h57.6v-1.2Z" mask="url(#C)"/><mask id="D" fill="#fff"><path d="M691.2 57.6h57.6v57.6h-57.6V57.6Z"/></mask><path fill="#D0D5DD" d="M748.8 115.2v.6h.6v-.6h-.6Zm-.6-57.6v57.6h1.2V57.6h-1.2Zm.6 57h-57.6v1.2h57.6v-1.2Z" mask="url(#D)"/><mask id="E" fill="#fff"><path d="M748.8 57.6h57.6v57.6h-57.6V57.6Z"/></mask><path fill="#D0D5DD" d="M806.4 115.2v.6h.6v-.6h-.6Zm-.6-57.6v57.6h1.2V57.6h-1.2Zm.6 57h-57.6v1.2h57.6v-1.2Z" mask="url(#E)"/><mask id="F" fill="#fff"><path d="M806.4 57.6H864v57.6h-57.6V57.6Z"/></mask><path fill="#F2F4F7" d="M806.4 57.6H864v57.6h-57.6V57.6Z"/><path fill="#D0D5DD" d="M864 115.2v.6h.6v-.6h-.6Zm-.6-57.6v57.6h1.2V57.6h-1.2Zm.6 57h-57.6v1.2H864v-1.2Z" mask="url(#F)"/><mask id="G" fill="#fff"><path d="M864 57.6h57.6v57.6H864V57.6Z"/></mask><path fill="#D0D5DD" d="M921.6 115.2v.6h.6v-.6h-.6Zm-.6-57.6v57.6h1.2V57.6H921Zm.6 57H864v1.2h57.6v-1.2Z" mask="url(#G)"/><mask id="H" fill="#fff"><path d="M921.6 57.6h57.6v57.6h-57.6V57.6Z"/></mask><path fill="#D0D5DD" d="M979.2 115.2v.6h.6v-.6h-.6Zm-.6-57.6v57.6h1.2V57.6h-1.2Zm.6 57h-57.6v1.2h57.6v-1.2Z" mask="url(#H)"/><mask id="I" fill="#fff"><path d="M979.2 57.6h57.6v57.6h-57.6V57.6Z"/></mask><path fill="#D0D5DD" d="M1036.8 115.2v.6h.6v-.6h-.6Zm-.6-57.6v57.6h1.2V57.6h-1.2Zm.6 57h-57.6v1.2h57.6v-1.2Z" mask="url(#I)"/><mask id="J" fill="#fff"><path d="M115.2 115.2h57.6v57.6h-57.6v-57.6Z"/></mask><path fill="#D0D5DD" d="M172.8 172.8v.6h.6v-.6h-.6Zm-.6-57.6v57.6h1.2v-57.6h-1.2Zm.6 57h-57.6v1.2h57.6v-1.2Z" mask="url(#J)"/><mask id="K" fill="#fff"><path d="M172.8 115.2h57.6v57.6h-57.6v-57.6Z"/></mask><path fill="#D0D5DD" d="M230.4 172.8v.6h.6v-.6h-.6Zm-.6-57.6v57.6h1.2v-57.6h-1.2Zm.6 57h-57.6v1.2h57.6v-1.2Z" mask="url(#K)"/><mask id="L" fill="#fff"><path d="M230.4 115.2H288v57.6h-57.6v-57.6Z"/></mask><path fill="#D0D5DD" d="M288 172.8v.6h.6v-.6h-.6Zm-.6-57.6v57.6h1.2v-57.6h-1.2Zm.6 57h-57.6v1.2H288v-1.2Z" mask="url(#L)"/><mask id="M" fill="#fff"><path d="M288 115.2h57.6v57.6H288v-57.6Z"/></mask><path fill="#D0D5DD" d="M345.6 172.8v.6h.6v-.6h-.6Zm-.6-57.6v57.6h1.2v-57.6H345Zm.6 57H288v1.2h57.6v-1.2Z" mask="url(#M)"/><mask id="N" fill="#fff"><path d="M345.6 115.2h57.6v57.6h-57.6v-57.6Z"/></mask><path fill="#D0D5DD" d="M403.2 172.8v.6h.6v-.6h-.6Zm-.6-57.6v57.6h1.2v-57.6h-1.2Zm.6 57h-57.6v1.2h57.6v-1.2Z" mask="url(#N)"/><mask id="O" fill="#fff"><path d="M403.2 115.2h57.6v57.6h-57.6v-57.6Z"/></mask><path fill="#F2F4F7" d="M403.2 115.2h57.6v57.6h-57.6v-57.6Z"/><path fill="#D0D5DD" d="M460.8 172.8v.6h.6v-.6h-.6Zm-.6-57.6v57.6h1.2v-57.6h-1.2Zm.6 57h-57.6v1.2h57.6v-1.2Z" mask="url(#O)"/><mask id="P" fill="#fff"><path d="M460.8 115.2h57.6v57.6h-57.6v-57.6Z"/></mask><path fill="#D0D5DD" d="M518.4 172.8v.6h.6v-.6h-.6Zm-.6-57.6v57.6h1.2v-57.6h-1.2Zm.6 57h-57.6v1.2h57.6v-1.2Z" mask="url(#P)"/><mask id="Q" fill="#fff"><path d="M518.4 115.2H576v57.6h-57.6v-57.6Z"/></mask><path fill="#D0D5DD" d="M576 172.8v.6h.6v-.6h-.6Zm-.6-57.6v57.6h1.2v-57.6h-1.2Zm.6 57h-57.6v1.2H576v-1.2Z" mask="url(#Q)"/><mask id="R" fill="#fff"><path d="M576 115.2h57.6v57.6H576v-57.6Z"/></mask><path fill="#D0D5DD" d="M633.6 172.8v.6h.6v-.6h-.6Zm-.6-57.6v57.6h1.2v-57.6H633Zm.6 57H576v1.2h57.6v-1.2Z" mask="url(#R)"/><mask id="S" fill="#fff"><path d="M633.6 115.2h57.6v57.6h-57.6v-57.6Z"/></mask><path fill="#F2F4F7" d="M633.6 115.2h57.6v57.6h-57.6v-57.6Z"/><path fill="#D0D5DD" d="M691.2 172.8v.6h.6v-.6h-.6Zm-.6-57.6v57.6h1.2v-57.6h-1.2Zm.6 57h-57.6v1.2h57.6v-1.2Z" mask="url(#S)"/><mask id="T" fill="#fff"><path d="M691.2 115.2h57.6v57.6h-57.6v-57.6Z"/></mask><path fill="#D0D5DD" d="M748.8 172.8v.6h.6v-.6h-.6Zm-.6-57.6v57.6h1.2v-57.6h-1.2Zm.6 57h-57.6v1.2h57.6v-1.2Z" mask="url(#T)"/><mask id="U" fill="#fff"><path d="M748.8 115.2h57.6v57.6h-57.6v-57.6Z"/></mask><path fill="#D0D5DD" d="M806.4 172.8v.6h.6v-.6h-.6Zm-.6-57.6v57.6h1.2v-57.6h-1.2Zm.6 57h-57.6v1.2h57.6v-1.2Z" mask="url(#U)"/><mask id="V" fill="#fff"><path d="M806.4 115.2H864v57.6h-57.6v-57.6Z"/></mask><path fill="#D0D5DD" d="M864 172.8v.6h.6v-.6h-.6Zm-.6-57.6v57.6h1.2v-57.6h-1.2Zm.6 57h-57.6v1.2H864v-1.2Z" mask="url(#V)"/><mask id="W" fill="#fff"><path d="M864 115.2h57.6v57.6H864v-57.6Z"/></mask><path fill="#D0D5DD" d="M921.6 172.8v.6h.6v-.6h-.6Zm-.6-57.6v57.6h1.2v-57.6H921Zm.6 57H864v1.2h57.6v-1.2Z" mask="url(#W)"/><mask id="X" fill="#fff"><path d="M921.6 115.2h57.6v57.6h-57.6v-57.6Z"/></mask><path fill="#D0D5DD" d="M979.2 172.8v.6h.6v-.6h-.6Zm-.6-57.6v57.6h1.2v-57.6h-1.2Zm.6 57h-57.6v1.2h57.6v-1.2Z" mask="url(#X)"/><mask id="Y" fill="#fff"><path d="M979.2 115.2h57.6v57.6h-57.6v-57.6Z"/></mask><path fill="#D0D5DD" d="M1036.8 172.8v.6h.6v-.6h-.6Zm-.6-57.6v57.6h1.2v-57.6h-1.2Zm.6 57h-57.6v1.2h57.6v-1.2Z" mask="url(#Y)"/><mask id="Z" fill="#fff"><path d="M115.2 172.8h57.6v57.6h-57.6v-57.6Z"/></mask><path fill="#F2F4F7" d="M115.2 172.8h57.6v57.6h-57.6v-57.6Z"/><path fill="#D0D5DD" d="M172.8 230.4v.6h.6v-.6h-.6Zm-.6-57.6v57.6h1.2v-57.6h-1.2Zm.6 57h-57.6v1.2h57.6v-1.2Z" mask="url(#Z)"/><mask id="aa" fill="#fff"><path d="M172.8 172.8h57.6v57.6h-57.6v-57.6Z"/></mask><path fill="#D0D5DD" d="M230.4 230.4v.6h.6v-.6h-.6Zm-.6-57.6v57.6h1.2v-57.6h-1.2Zm.6 57h-57.6v1.2h57.6v-1.2Z" mask="url(#aa)"/><mask id="ab" fill="#fff"><path d="M230.4 172.8H288v57.6h-57.6v-57.6Z"/></mask><path fill="#D0D5DD" d="M288 230.4v.6h.6v-.6h-.6Zm-.6-57.6v57.6h1.2v-57.6h-1.2Zm.6 57h-57.6v1.2H288v-1.2Z" mask="url(#ab)"/><mask id="ac" fill="#fff"><path d="M288 172.8h57.6v57.6H288v-57.6Z"/></mask><path fill="#D0D5DD" d="M345.6 230.4v.6h.6v-.6h-.6Zm-.6-57.6v57.6h1.2v-57.6H345Zm.6 57H288v1.2h57.6v-1.2Z" mask="url(#ac)"/><mask id="ad" fill="#fff"><path d="M345.6 172.8h57.6v57.6h-57.6v-57.6Z"/></mask><path fill="#D0D5DD" d="M403.2 230.4v.6h.6v-.6h-.6Zm-.6-57.6v57.6h1.2v-57.6h-1.2Zm.6 57h-57.6v1.2h57.6v-1.2Z" mask="url(#ad)"/><mask id="ae" fill="#fff"><path d="M403.2 172.8h57.6v57.6h-57.6v-57.6Z"/></mask><path fill="#D0D5DD" d="M460.8 230.4v.6h.6v-.6h-.6Zm-.6-57.6v57.6h1.2v-57.6h-1.2Zm.6 57h-57.6v1.2h57.6v-1.2Z" mask="url(#ae)"/><mask id="af" fill="#fff"><path d="M460.8 172.8h57.6v57.6h-57.6v-57.6Z"/></mask><path fill="#D0D5DD" d="M518.4 230.4v.6h.6v-.6h-.6Zm-.6-57.6v57.6h1.2v-57.6h-1.2Zm.6 57h-57.6v1.2h57.6v-1.2Z" mask="url(#af)"/><mask id="ag" fill="#fff"><path d="M518.4 172.8H576v57.6h-57.6v-57.6Z"/></mask><path fill="#D0D5DD" d="M576 230.4v.6h.6v-.6h-.6Zm-.6-57.6v57.6h1.2v-57.6h-1.2Zm.6 57h-57.6v1.2H576v-1.2Z" mask="url(#ag)"/><mask id="ah" fill="#fff"><path d="M576 172.8h57.6v57.6H576v-57.6Z"/></mask><path fill="#D0D5DD" d="M633.6 230.4v.6h.6v-.6h-.6Zm-.6-57.6v57.6h1.2v-57.6H633Zm.6 57H576v1.2h57.6v-1.2Z" mask="url(#ah)"/><mask id="ai" fill="#fff"><path d="M633.6 172.8h57.6v57.6h-57.6v-57.6Z"/></mask><path fill="#D0D5DD" d="M691.2 230.4v.6h.6v-.6h-.6Zm-.6-57.6v57.6h1.2v-57.6h-1.2Zm.6 57h-57.6v1.2h57.6v-1.2Z" mask="url(#ai)"/><mask id="aj" fill="#fff"><path d="M691.2 172.8h57.6v57.6h-57.6v-57.6Z"/></mask><path fill="#D0D5DD" d="M748.8 230.4v.6h.6v-.6h-.6Zm-.6-57.6v57.6h1.2v-57.6h-1.2Zm.6 57h-57.6v1.2h57.6v-1.2Z" mask="url(#aj)"/><mask id="ak" fill="#fff"><path d="M748.8 172.8h57.6v57.6h-57.6v-57.6Z"/></mask><path fill="#D0D5DD" d="M806.4 230.4v.6h.6v-.6h-.6Zm-.6-57.6v57.6h1.2v-57.6h-1.2Zm.6 57h-57.6v1.2h57.6v-1.2Z" mask="url(#ak)"/><mask id="al" fill="#fff"><path d="M806.4 172.8H864v57.6h-57.6v-57.6Z"/></mask><path fill="#F2F4F7" d="M806.4 172.8H864v57.6h-57.6v-57.6Z"/><path fill="#D0D5DD" d="M864 230.4v.6h.6v-.6h-.6Zm-.6-57.6v57.6h1.2v-57.6h-1.2Zm.6 57h-57.6v1.2H864v-1.2Z" mask="url(#al)"/><mask id="am" fill="#fff"><path d="M864 172.8h57.6v57.6H864v-57.6Z"/></mask><path fill="#D0D5DD" d="M921.6 230.4v.6h.6v-.6h-.6Zm-.6-57.6v57.6h1.2v-57.6H921Zm.6 57H864v1.2h57.6v-1.2Z" mask="url(#am)"/><mask id="an" fill="#fff"><path d="M921.6 172.8h57.6v57.6h-57.6v-57.6Z"/></mask><path fill="#D0D5DD" d="M979.2 230.4v.6h.6v-.6h-.6Zm-.6-57.6v57.6h1.2v-57.6h-1.2Zm.6 57h-57.6v1.2h57.6v-1.2Z" mask="url(#an)"/><mask id="ao" fill="#fff"><path d="M979.2 172.8h57.6v57.6h-57.6v-57.6Z"/></mask><path fill="#D0D5DD" d="M1036.8 230.4v.6h.6v-.6h-.6Zm-.6-57.6v57.6h1.2v-57.6h-1.2Zm.6 57h-57.6v1.2h57.6v-1.2Z" mask="url(#ao)"/><mask id="ap" fill="#fff"><path d="M115.2 230.4h57.6V288h-57.6v-57.6Z"/></mask><path fill="#D0D5DD" d="M172.8 288v.6h.6v-.6h-.6Zm-.6-57.6V288h1.2v-57.6h-1.2Zm.6 57h-57.6v1.2h57.6v-1.2Z" mask="url(#ap)"/><mask id="aq" fill="#fff"><path d="M172.8 230.4h57.6V288h-57.6v-57.6Z"/></mask><path fill="#D0D5DD" d="M230.4 288v.6h.6v-.6h-.6Zm-.6-57.6V288h1.2v-57.6h-1.2Zm.6 57h-57.6v1.2h57.6v-1.2Z" mask="url(#aq)"/><mask id="ar" fill="#fff"><path d="M230.4 230.4H288V288h-57.6v-57.6Z"/></mask><path fill="#D0D5DD" d="M288 288v.6h.6v-.6h-.6Zm-.6-57.6V288h1.2v-57.6h-1.2Zm.6 57h-57.6v1.2H288v-1.2Z" mask="url(#ar)"/><mask id="as" fill="#fff"><path d="M288 230.4h57.6V288H288v-57.6Z"/></mask><path fill="#D0D5DD" d="M345.6 288v.6h.6v-.6h-.6Zm-.6-57.6V288h1.2v-57.6H345Zm.6 57H288v1.2h57.6v-1.2Z" mask="url(#as)"/><mask id="at" fill="#fff"><path d="M345.6 230.4h57.6V288h-57.6v-57.6Z"/></mask><path fill="#D0D5DD" d="M403.2 288v.6h.6v-.6h-.6Zm-.6-57.6V288h1.2v-57.6h-1.2Zm.6 57h-57.6v1.2h57.6v-1.2Z" mask="url(#at)"/><mask id="au" fill="#fff"><path d="M403.2 230.4h57.6V288h-57.6v-57.6Z"/></mask><path fill="#D0D5DD" d="M460.8 288v.6h.6v-.6h-.6Zm-.6-57.6V288h1.2v-57.6h-1.2Zm.6 57h-57.6v1.2h57.6v-1.2Z" mask="url(#au)"/><mask id="av" fill="#fff"><path d="M460.8 230.4h57.6V288h-57.6v-57.6Z"/></mask><path fill="#F2F4F7" d="M460.8 230.4h57.6V288h-57.6v-57.6Z"/><path fill="#D0D5DD" d="M518.4 288v.6h.6v-.6h-.6Zm-.6-57.6V288h1.2v-57.6h-1.2Zm.6 57h-57.6v1.2h57.6v-1.2Z" mask="url(#av)"/><mask id="aw" fill="#fff"><path d="M518.4 230.4H576V288h-57.6v-57.6Z"/></mask><path fill="#D0D5DD" d="M576 288v.6h.6v-.6h-.6Zm-.6-57.6V288h1.2v-57.6h-1.2Zm.6 57h-57.6v1.2H576v-1.2Z" mask="url(#aw)"/><mask id="ax" fill="#fff"><path d="M576 230.4h57.6V288H576v-57.6Z"/></mask><path fill="#D0D5DD" d="M633.6 288v.6h.6v-.6h-.6Zm-.6-57.6V288h1.2v-57.6H633Zm.6 57H576v1.2h57.6v-1.2Z" mask="url(#ax)"/><mask id="ay" fill="#fff"><path d="M633.6 230.4h57.6V288h-57.6v-57.6Z"/></mask><path fill="#D0D5DD" d="M691.2 288v.6h.6v-.6h-.6Zm-.6-57.6V288h1.2v-57.6h-1.2Zm.6 57h-57.6v1.2h57.6v-1.2Z" mask="url(#ay)"/><mask id="az" fill="#fff"><path d="M691.2 230.4h57.6V288h-57.6v-57.6Z"/></mask><path fill="#D0D5DD" d="M748.8 288v.6h.6v-.6h-.6Zm-.6-57.6V288h1.2v-57.6h-1.2Zm.6 57h-57.6v1.2h57.6v-1.2Z" mask="url(#az)"/><mask id="aA" fill="#fff"><path d="M748.8 230.4h57.6V288h-57.6v-57.6Z"/></mask><path fill="#D0D5DD" d="M806.4 288v.6h.6v-.6h-.6Zm-.6-57.6V288h1.2v-57.6h-1.2Zm.6 57h-57.6v1.2h57.6v-1.2Z" mask="url(#aA)"/><mask id="aB" fill="#fff"><path d="M806.4 230.4H864V288h-57.6v-57.6Z"/></mask><path fill="#D0D5DD" d="M864 288v.6h.6v-.6h-.6Zm-.6-57.6V288h1.2v-57.6h-1.2Zm.6 57h-57.6v1.2H864v-1.2Z" mask="url(#aB)"/><mask id="aC" fill="#fff"><path d="M864 230.4h57.6V288H864v-57.6Z"/></mask><path fill="#D0D5DD" d="M921.6 288v.6h.6v-.6h-.6Zm-.6-57.6V288h1.2v-57.6H921Zm.6 57H864v1.2h57.6v-1.2Z" mask="url(#aC)"/><mask id="aD" fill="#fff"><path d="M921.6 230.4h57.6V288h-57.6v-57.6Z"/></mask><path fill="#D0D5DD" d="M979.2 288v.6h.6v-.6h-.6Zm-.6-57.6V288h1.2v-57.6h-1.2Zm.6 57h-57.6v1.2h57.6v-1.2Z" mask="url(#aD)"/><mask id="aE" fill="#fff"><path d="M979.2 230.4h57.6V288h-57.6v-57.6Z"/></mask><path fill="#D0D5DD" d="M1036.8 288v.6h.6v-.6h-.6Zm-.6-57.6V288h1.2v-57.6h-1.2Zm.6 57h-57.6v1.2h57.6v-1.2Z" mask="url(#aE)"/><mask id="aF" fill="#fff"><path d="M115.2 288h57.6v57.6h-57.6V288Z"/></mask><path fill="#D0D5DD" d="M172.8 345.6v.6h.6v-.6h-.6Zm-.6-57.6v57.6h1.2V288h-1.2Zm.6 57h-57.6v1.2h57.6V345Z" mask="url(#aF)"/><mask id="aG" fill="#fff"><path d="M172.8 288h57.6v57.6h-57.6V288Z"/></mask><path fill="#D0D5DD" d="M230.4 345.6v.6h.6v-.6h-.6Zm-.6-57.6v57.6h1.2V288h-1.2Zm.6 57h-57.6v1.2h57.6V345Z" mask="url(#aG)"/><mask id="aH" fill="#fff"><path d="M230.4 288H288v57.6h-57.6V288Z"/></mask><path fill="#D0D5DD" d="M288 345.6v.6h.6v-.6h-.6Zm-.6-57.6v57.6h1.2V288h-1.2Zm.6 57h-57.6v1.2H288V345Z" mask="url(#aH)"/><mask id="aI" fill="#fff"><path d="M288 288h57.6v57.6H288V288Z"/></mask><path fill="#F2F4F7" d="M288 288h57.6v57.6H288V288Z"/><path fill="#D0D5DD" d="M345.6 345.6v.6h.6v-.6h-.6ZM345 288v57.6h1.2V288H345Zm.6 57H288v1.2h57.6V345Z" mask="url(#aI)"/><mask id="aJ" fill="#fff"><path d="M345.6 288h57.6v57.6h-57.6V288Z"/></mask><path fill="#D0D5DD" d="M403.2 345.6v.6h.6v-.6h-.6Zm-.6-57.6v57.6h1.2V288h-1.2Zm.6 57h-57.6v1.2h57.6V345Z" mask="url(#aJ)"/><mask id="aK" fill="#fff"><path d="M403.2 288h57.6v57.6h-57.6V288Z"/></mask><path fill="#D0D5DD" d="M460.8 345.6v.6h.6v-.6h-.6Zm-.6-57.6v57.6h1.2V288h-1.2Zm.6 57h-57.6v1.2h57.6V345Z" mask="url(#aK)"/><mask id="aL" fill="#fff"><path d="M460.8 288h57.6v57.6h-57.6V288Z"/></mask><path fill="#D0D5DD" d="M518.4 345.6v.6h.6v-.6h-.6Zm-.6-57.6v57.6h1.2V288h-1.2Zm.6 57h-57.6v1.2h57.6V345Z" mask="url(#aL)"/><mask id="aM" fill="#fff"><path d="M518.4 288H576v57.6h-57.6V288Z"/></mask><path fill="#D0D5DD" d="M576 345.6v.6h.6v-.6h-.6Zm-.6-57.6v57.6h1.2V288h-1.2Zm.6 57h-57.6v1.2H576V345Z" mask="url(#aM)"/><mask id="aN" fill="#fff"><path d="M576 288h57.6v57.6H576V288Z"/></mask><path fill="#D0D5DD" d="M633.6 345.6v.6h.6v-.6h-.6ZM633 288v57.6h1.2V288H633Zm.6 57H576v1.2h57.6V345Z" mask="url(#aN)"/><mask id="aO" fill="#fff"><path d="M633.6 288h57.6v57.6h-57.6V288Z"/></mask><path fill="#F2F4F7" d="M633.6 288h57.6v57.6h-57.6V288Z"/><path fill="#D0D5DD" d="M691.2 345.6v.6h.6v-.6h-.6Zm-.6-57.6v57.6h1.2V288h-1.2Zm.6 57h-57.6v1.2h57.6V345Z" mask="url(#aO)"/><mask id="aP" fill="#fff"><path d="M691.2 288h57.6v57.6h-57.6V288Z"/></mask><path fill="#D0D5DD" d="M748.8 345.6v.6h.6v-.6h-.6Zm-.6-57.6v57.6h1.2V288h-1.2Zm.6 57h-57.6v1.2h57.6V345Z" mask="url(#aP)"/><mask id="aQ" fill="#fff"><path d="M748.8 288h57.6v57.6h-57.6V288Z"/></mask><path fill="#D0D5DD" d="M806.4 345.6v.6h.6v-.6h-.6Zm-.6-57.6v57.6h1.2V288h-1.2Zm.6 57h-57.6v1.2h57.6V345Z" mask="url(#aQ)"/><mask id="aR" fill="#fff"><path d="M806.4 288H864v57.6h-57.6V288Z"/></mask><path fill="#D0D5DD" d="M864 345.6v.6h.6v-.6h-.6Zm-.6-57.6v57.6h1.2V288h-1.2Zm.6 57h-57.6v1.2H864V345Z" mask="url(#aR)"/><mask id="aS" fill="#fff"><path d="M864 288h57.6v57.6H864V288Z"/></mask><path fill="#D0D5DD" d="M921.6 345.6v.6h.6v-.6h-.6ZM921 288v57.6h1.2V288H921Zm.6 57H864v1.2h57.6V345Z" mask="url(#aS)"/><mask id="aT" fill="#fff"><path d="M921.6 288h57.6v57.6h-57.6V288Z"/></mask><path fill="#D0D5DD" d="M979.2 345.6v.6h.6v-.6h-.6Zm-.6-57.6v57.6h1.2V288h-1.2Zm.6 57h-57.6v1.2h57.6V345Z" mask="url(#aT)"/><mask id="aU" fill="#fff"><path d="M979.2 288h57.6v57.6h-57.6V288Z"/></mask><path fill="#D0D5DD" d="M1036.8 345.6v.6h.6v-.6h-.6Zm-.6-57.6v57.6h1.2V288h-1.2Zm.6 57h-57.6v1.2h57.6V345Z" mask="url(#aU)"/><mask id="aV" fill="#fff"><path d="M115.2 345.6h57.6v57.6h-57.6v-57.6Z"/></mask><path fill="#D0D5DD" d="M172.8 403.2v.6h.6v-.6h-.6Zm-.6-57.6v57.6h1.2v-57.6h-1.2Zm.6 57h-57.6v1.2h57.6v-1.2Z" mask="url(#aV)"/><mask id="aW" fill="#fff"><path d="M172.8 345.6h57.6v57.6h-57.6v-57.6Z"/></mask><path fill="#F2F4F7" d="M172.8 345.6h57.6v57.6h-57.6v-57.6Z"/><path fill="#D0D5DD" d="M230.4 403.2v.6h.6v-.6h-.6Zm-.6-57.6v57.6h1.2v-57.6h-1.2Zm.6 57h-57.6v1.2h57.6v-1.2Z" mask="url(#aW)"/><mask id="aX" fill="#fff"><path d="M230.4 345.6H288v57.6h-57.6v-57.6Z"/></mask><path fill="#D0D5DD" d="M288 403.2v.6h.6v-.6h-.6Zm-.6-57.6v57.6h1.2v-57.6h-1.2Zm.6 57h-57.6v1.2H288v-1.2Z" mask="url(#aX)"/><mask id="aY" fill="#fff"><path d="M288 345.6h57.6v57.6H288v-57.6Z"/></mask><path fill="#D0D5DD" d="M345.6 403.2v.6h.6v-.6h-.6Zm-.6-57.6v57.6h1.2v-57.6H345Zm.6 57H288v1.2h57.6v-1.2Z" mask="url(#aY)"/><mask id="aZ" fill="#fff"><path d="M345.6 345.6h57.6v57.6h-57.6v-57.6Z"/></mask><path fill="#D0D5DD" d="M403.2 403.2v.6h.6v-.6h-.6Zm-.6-57.6v57.6h1.2v-57.6h-1.2Zm.6 57h-57.6v1.2h57.6v-1.2Z" mask="url(#aZ)"/><mask id="ba" fill="#fff"><path d="M403.2 345.6h57.6v57.6h-57.6v-57.6Z"/></mask><path fill="#D0D5DD" d="M460.8 403.2v.6h.6v-.6h-.6Zm-.6-57.6v57.6h1.2v-57.6h-1.2Zm.6 57h-57.6v1.2h57.6v-1.2Z" mask="url(#ba)"/><mask id="bb" fill="#fff"><path d="M460.8 345.6h57.6v57.6h-57.6v-57.6Z"/></mask><path fill="#D0D5DD" d="M518.4 403.2v.6h.6v-.6h-.6Zm-.6-57.6v57.6h1.2v-57.6h-1.2Zm.6 57h-57.6v1.2h57.6v-1.2Z" mask="url(#bb)"/><mask id="bc" fill="#fff"><path d="M518.4 345.6H576v57.6h-57.6v-57.6Z"/></mask><path fill="#D0D5DD" d="M576 403.2v.6h.6v-.6h-.6Zm-.6-57.6v57.6h1.2v-57.6h-1.2Zm.6 57h-57.6v1.2H576v-1.2Z" mask="url(#bc)"/><mask id="bd" fill="#fff"><path d="M576 345.6h57.6v57.6H576v-57.6Z"/></mask><path fill="#D0D5DD" d="M633.6 403.2v.6h.6v-.6h-.6Zm-.6-57.6v57.6h1.2v-57.6H633Zm.6 57H576v1.2h57.6v-1.2Z" mask="url(#bd)"/><mask id="be" fill="#fff"><path d="M633.6 345.6h57.6v57.6h-57.6v-57.6Z"/></mask><path fill="#D0D5DD" d="M691.2 403.2v.6h.6v-.6h-.6Zm-.6-57.6v57.6h1.2v-57.6h-1.2Zm.6 57h-57.6v1.2h57.6v-1.2Z" mask="url(#be)"/><mask id="bf" fill="#fff"><path d="M691.2 345.6h57.6v57.6h-57.6v-57.6Z"/></mask><path fill="#D0D5DD" d="M748.8 403.2v.6h.6v-.6h-.6Zm-.6-57.6v57.6h1.2v-57.6h-1.2Zm.6 57h-57.6v1.2h57.6v-1.2Z" mask="url(#bf)"/><mask id="bg" fill="#fff"><path d="M748.8 345.6h57.6v57.6h-57.6v-57.6Z"/></mask><path fill="#D0D5DD" d="M806.4 403.2v.6h.6v-.6h-.6Zm-.6-57.6v57.6h1.2v-57.6h-1.2Zm.6 57h-57.6v1.2h57.6v-1.2Z" mask="url(#bg)"/><mask id="bh" fill="#fff"><path d="M806.4 345.6H864v57.6h-57.6v-57.6Z"/></mask><path fill="#D0D5DD" d="M864 403.2v.6h.6v-.6h-.6Zm-.6-57.6v57.6h1.2v-57.6h-1.2Zm.6 57h-57.6v1.2H864v-1.2Z" mask="url(#bh)"/><mask id="bi" fill="#fff"><path d="M864 345.6h57.6v57.6H864v-57.6Z"/></mask><path fill="#D0D5DD" d="M921.6 403.2v.6h.6v-.6h-.6Zm-.6-57.6v57.6h1.2v-57.6H921Zm.6 57H864v1.2h57.6v-1.2Z" mask="url(#bi)"/><mask id="bj" fill="#fff"><path d="M921.6 345.6h57.6v57.6h-57.6v-57.6Z"/></mask><path fill="#F2F4F7" d="M921.6 345.6h57.6v57.6h-57.6v-57.6Z"/><path fill="#D0D5DD" d="M979.2 403.2v.6h.6v-.6h-.6Zm-.6-57.6v57.6h1.2v-57.6h-1.2Zm.6 57h-57.6v1.2h57.6v-1.2Z" mask="url(#bj)"/><mask id="bk" fill="#fff"><path d="M979.2 345.6h57.6v57.6h-57.6v-57.6Z"/></mask><path fill="#D0D5DD" d="M1036.8 403.2v.6h.6v-.6h-.6Zm-.6-57.6v57.6h1.2v-57.6h-1.2Zm.6 57h-57.6v1.2h57.6v-1.2Z" mask="url(#bk)"/><mask id="bl" fill="#fff"><path d="M115.2 403.2h57.6v57.6h-57.6v-57.6Z"/></mask><path fill="#D0D5DD" d="M172.8 460.8v.6h.6v-.6h-.6Zm-.6-57.6v57.6h1.2v-57.6h-1.2Zm.6 57h-57.6v1.2h57.6v-1.2Z" mask="url(#bl)"/><mask id="bm" fill="#fff"><path d="M172.8 403.2h57.6v57.6h-57.6v-57.6Z"/></mask><path fill="#D0D5DD" d="M230.4 460.8v.6h.6v-.6h-.6Zm-.6-57.6v57.6h1.2v-57.6h-1.2Zm.6 57h-57.6v1.2h57.6v-1.2Z" mask="url(#bm)"/><mask id="bn" fill="#fff"><path d="M230.4 403.2H288v57.6h-57.6v-57.6Z"/></mask><path fill="#D0D5DD" d="M288 460.8v.6h.6v-.6h-.6Zm-.6-57.6v57.6h1.2v-57.6h-1.2Zm.6 57h-57.6v1.2H288v-1.2Z" mask="url(#bn)"/><mask id="bo" fill="#fff"><path d="M288 403.2h57.6v57.6H288v-57.6Z"/></mask><path fill="#D0D5DD" d="M345.6 460.8v.6h.6v-.6h-.6Zm-.6-57.6v57.6h1.2v-57.6H345Zm.6 57H288v1.2h57.6v-1.2Z" mask="url(#bo)"/><mask id="bp" fill="#fff"><path d="M345.6 403.2h57.6v57.6h-57.6v-57.6Z"/></mask><path fill="#D0D5DD" d="M403.2 460.8v.6h.6v-.6h-.6Zm-.6-57.6v57.6h1.2v-57.6h-1.2Zm.6 57h-57.6v1.2h57.6v-1.2Z" mask="url(#bp)"/><mask id="bq" fill="#fff"><path d="M403.2 403.2h57.6v57.6h-57.6v-57.6Z"/></mask><path fill="#D0D5DD" d="M460.8 460.8v.6h.6v-.6h-.6Zm-.6-57.6v57.6h1.2v-57.6h-1.2Zm.6 57h-57.6v1.2h57.6v-1.2Z" mask="url(#bq)"/><mask id="br" fill="#fff"><path d="M460.8 403.2h57.6v57.6h-57.6v-57.6Z"/></mask><path fill="#F2F4F7" d="M460.8 403.2h57.6v57.6h-57.6v-57.6Z"/><path fill="#D0D5DD" d="M518.4 460.8v.6h.6v-.6h-.6Zm-.6-57.6v57.6h1.2v-57.6h-1.2Zm.6 57h-57.6v1.2h57.6v-1.2Z" mask="url(#br)"/><mask id="bs" fill="#fff"><path d="M518.4 403.2H576v57.6h-57.6v-57.6Z"/></mask><path fill="#D0D5DD" d="M576 460.8v.6h.6v-.6h-.6Zm-.6-57.6v57.6h1.2v-57.6h-1.2Zm.6 57h-57.6v1.2H576v-1.2Z" mask="url(#bs)"/><mask id="bt" fill="#fff"><path d="M576 403.2h57.6v57.6H576v-57.6Z"/></mask><path fill="#D0D5DD" d="M633.6 460.8v.6h.6v-.6h-.6Zm-.6-57.6v57.6h1.2v-57.6H633Zm.6 57H576v1.2h57.6v-1.2Z" mask="url(#bt)"/><mask id="bu" fill="#fff"><path d="M633.6 403.2h57.6v57.6h-57.6v-57.6Z"/></mask><path fill="#D0D5DD" d="M691.2 460.8v.6h.6v-.6h-.6Zm-.6-57.6v57.6h1.2v-57.6h-1.2Zm.6 57h-57.6v1.2h57.6v-1.2Z" mask="url(#bu)"/><mask id="bv" fill="#fff"><path d="M691.2 403.2h57.6v57.6h-57.6v-57.6Z"/></mask><path fill="#D0D5DD" d="M748.8 460.8v.6h.6v-.6h-.6Zm-.6-57.6v57.6h1.2v-57.6h-1.2Zm.6 57h-57.6v1.2h57.6v-1.2Z" mask="url(#bv)"/><mask id="bw" fill="#fff"><path d="M748.8 403.2h57.6v57.6h-57.6v-57.6Z"/></mask><path fill="#D0D5DD" d="M806.4 460.8v.6h.6v-.6h-.6Zm-.6-57.6v57.6h1.2v-57.6h-1.2Zm.6 57h-57.6v1.2h57.6v-1.2Z" mask="url(#bw)"/><mask id="bx" fill="#fff"><path d="M806.4 403.2H864v57.6h-57.6v-57.6Z"/></mask><path fill="#F2F4F7" d="M806.4 403.2H864v57.6h-57.6v-57.6Z"/><path fill="#D0D5DD" d="M864 460.8v.6h.6v-.6h-.6Zm-.6-57.6v57.6h1.2v-57.6h-1.2Zm.6 57h-57.6v1.2H864v-1.2Z" mask="url(#bx)"/><mask id="by" fill="#fff"><path d="M864 403.2h57.6v57.6H864v-57.6Z"/></mask><path fill="#D0D5DD" d="M921.6 460.8v.6h.6v-.6h-.6Zm-.6-57.6v57.6h1.2v-57.6H921Zm.6 57H864v1.2h57.6v-1.2Z" mask="url(#by)"/><mask id="bz" fill="#fff"><path d="M921.6 403.2h57.6v57.6h-57.6v-57.6Z"/></mask><path fill="#D0D5DD" d="M979.2 460.8v.6h.6v-.6h-.6Zm-.6-57.6v57.6h1.2v-57.6h-1.2Zm.6 57h-57.6v1.2h57.6v-1.2Z" mask="url(#bz)"/><mask id="bA" fill="#fff"><path d="M979.2 403.2h57.6v57.6h-57.6v-57.6Z"/></mask><path fill="#D0D5DD" d="M1036.8 460.8v.6h.6v-.6h-.6Zm-.6-57.6v57.6h1.2v-57.6h-1.2Zm.6 57h-57.6v1.2h57.6v-1.2Z" mask="url(#bA)"/><mask id="bB" fill="#fff"><path d="M115.2 460.8h57.6v57.6h-57.6v-57.6Z"/></mask><path fill="#D0D5DD" d="M172.8 518.4v.6h.6v-.6h-.6Zm-.6-57.6v57.6h1.2v-57.6h-1.2Zm.6 57h-57.6v1.2h57.6v-1.2Z" mask="url(#bB)"/><mask id="bC" fill="#fff"><path d="M172.8 460.8h57.6v57.6h-57.6v-57.6Z"/></mask><path fill="#D0D5DD" d="M230.4 518.4v.6h.6v-.6h-.6Zm-.6-57.6v57.6h1.2v-57.6h-1.2Zm.6 57h-57.6v1.2h57.6v-1.2Z" mask="url(#bC)"/><mask id="bD" fill="#fff"><path d="M230.4 460.8H288v57.6h-57.6v-57.6Z"/></mask><path fill="#D0D5DD" d="M288 518.4v.6h.6v-.6h-.6Zm-.6-57.6v57.6h1.2v-57.6h-1.2Zm.6 57h-57.6v1.2H288v-1.2Z" mask="url(#bD)"/><mask id="bE" fill="#fff"><path d="M288 460.8h57.6v57.6H288v-57.6Z"/></mask><path fill="#F2F4F7" d="M288 460.8h57.6v57.6H288v-57.6Z"/><path fill="#D0D5DD" d="M345.6 518.4v.6h.6v-.6h-.6Zm-.6-57.6v57.6h1.2v-57.6H345Zm.6 57H288v1.2h57.6v-1.2Z" mask="url(#bE)"/><mask id="bF" fill="#fff"><path d="M345.6 460.8h57.6v57.6h-57.6v-57.6Z"/></mask><path fill="#D0D5DD" d="M403.2 518.4v.6h.6v-.6h-.6Zm-.6-57.6v57.6h1.2v-57.6h-1.2Zm.6 57h-57.6v1.2h57.6v-1.2Z" mask="url(#bF)"/><mask id="bG" fill="#fff"><path d="M403.2 460.8h57.6v57.6h-57.6v-57.6Z"/></mask><path fill="#D0D5DD" d="M460.8 518.4v.6h.6v-.6h-.6Zm-.6-57.6v57.6h1.2v-57.6h-1.2Zm.6 57h-57.6v1.2h57.6v-1.2Z" mask="url(#bG)"/><mask id="bH" fill="#fff"><path d="M460.8 460.8h57.6v57.6h-57.6v-57.6Z"/></mask><path fill="#D0D5DD" d="M518.4 518.4v.6h.6v-.6h-.6Zm-.6-57.6v57.6h1.2v-57.6h-1.2Zm.6 57h-57.6v1.2h57.6v-1.2Z" mask="url(#bH)"/><mask id="bI" fill="#fff"><path d="M518.4 460.8H576v57.6h-57.6v-57.6Z"/></mask><path fill="#D0D5DD" d="M576 518.4v.6h.6v-.6h-.6Zm-.6-57.6v57.6h1.2v-57.6h-1.2Zm.6 57h-57.6v1.2H576v-1.2Z" mask="url(#bI)"/><mask id="bJ" fill="#fff"><path d="M576 460.8h57.6v57.6H576v-57.6Z"/></mask><path fill="#D0D5DD" d="M633.6 518.4v.6h.6v-.6h-.6Zm-.6-57.6v57.6h1.2v-57.6H633Zm.6 57H576v1.2h57.6v-1.2Z" mask="url(#bJ)"/><mask id="bK" fill="#fff"><path d="M633.6 460.8h57.6v57.6h-57.6v-57.6Z"/></mask><path fill="#F2F4F7" d="M633.6 460.8h57.6v57.6h-57.6v-57.6Z"/><path fill="#D0D5DD" d="M691.2 518.4v.6h.6v-.6h-.6Zm-.6-57.6v57.6h1.2v-57.6h-1.2Zm.6 57h-57.6v1.2h57.6v-1.2Z" mask="url(#bK)"/><mask id="bL" fill="#fff"><path d="M691.2 460.8h57.6v57.6h-57.6v-57.6Z"/></mask><path fill="#D0D5DD" d="M748.8 518.4v.6h.6v-.6h-.6Zm-.6-57.6v57.6h1.2v-57.6h-1.2Zm.6 57h-57.6v1.2h57.6v-1.2Z" mask="url(#bL)"/><mask id="bM" fill="#fff"><path d="M748.8 460.8h57.6v57.6h-57.6v-57.6Z"/></mask><path fill="#D0D5DD" d="M806.4 518.4v.6h.6v-.6h-.6Zm-.6-57.6v57.6h1.2v-57.6h-1.2Zm.6 57h-57.6v1.2h57.6v-1.2Z" mask="url(#bM)"/><mask id="bN" fill="#fff"><path d="M806.4 460.8H864v57.6h-57.6v-57.6Z"/></mask><path fill="#D0D5DD" d="M864 518.4v.6h.6v-.6h-.6Zm-.6-57.6v57.6h1.2v-57.6h-1.2Zm.6 57h-57.6v1.2H864v-1.2Z" mask="url(#bN)"/><mask id="bO" fill="#fff"><path d="M864 460.8h57.6v57.6H864v-57.6Z"/></mask><path fill="#D0D5DD" d="M921.6 518.4v.6h.6v-.6h-.6Zm-.6-57.6v57.6h1.2v-57.6H921Zm.6 57H864v1.2h57.6v-1.2Z" mask="url(#bO)"/><mask id="bP" fill="#fff"><path d="M921.6 460.8h57.6v57.6h-57.6v-57.6Z"/></mask><path fill="#D0D5DD" d="M979.2 518.4v.6h.6v-.6h-.6Zm-.6-57.6v57.6h1.2v-57.6h-1.2Zm.6 57h-57.6v1.2h57.6v-1.2Z" mask="url(#bP)"/><mask id="bQ" fill="#fff"><path d="M979.2 460.8h57.6v57.6h-57.6v-57.6Z"/></mask><path fill="#D0D5DD" d="M1036.8 518.4v.6h.6v-.6h-.6Zm-.6-57.6v57.6h1.2v-57.6h-1.2Zm.6 57h-57.6v1.2h57.6v-1.2Z" mask="url(#bQ)"/><mask id="bR" fill="#fff"><path d="M115.2 518.4h57.6V576h-57.6v-57.6Z"/></mask><path fill="#D0D5DD" d="M172.8 576v.6h.6v-.6h-.6Zm-.6-57.6V576h1.2v-57.6h-1.2Zm.6 57h-57.6v1.2h57.6v-1.2Z" mask="url(#bR)"/><mask id="bS" fill="#fff"><path d="M172.8 518.4h57.6V576h-57.6v-57.6Z"/></mask><path fill="#D0D5DD" d="M230.4 576v.6h.6v-.6h-.6Zm-.6-57.6V576h1.2v-57.6h-1.2Zm.6 57h-57.6v1.2h57.6v-1.2Z" mask="url(#bS)"/><mask id="bT" fill="#fff"><path d="M230.4 518.4H288V576h-57.6v-57.6Z"/></mask><path fill="#D0D5DD" d="M288 576v.6h.6v-.6h-.6Zm-.6-57.6V576h1.2v-57.6h-1.2Zm.6 57h-57.6v1.2H288v-1.2Z" mask="url(#bT)"/><mask id="bU" fill="#fff"><path d="M288 518.4h57.6V576H288v-57.6Z"/></mask><path fill="#D0D5DD" d="M345.6 576v.6h.6v-.6h-.6Zm-.6-57.6V576h1.2v-57.6H345Zm.6 57H288v1.2h57.6v-1.2Z" mask="url(#bU)"/><mask id="bV" fill="#fff"><path d="M345.6 518.4h57.6V576h-57.6v-57.6Z"/></mask><path fill="#D0D5DD" d="M403.2 576v.6h.6v-.6h-.6Zm-.6-57.6V576h1.2v-57.6h-1.2Zm.6 57h-57.6v1.2h57.6v-1.2Z" mask="url(#bV)"/><mask id="bW" fill="#fff"><path d="M403.2 518.4h57.6V576h-57.6v-57.6Z"/></mask><path fill="#D0D5DD" d="M460.8 576v.6h.6v-.6h-.6Zm-.6-57.6V576h1.2v-57.6h-1.2Zm.6 57h-57.6v1.2h57.6v-1.2Z" mask="url(#bW)"/><mask id="bX" fill="#fff"><path d="M460.8 518.4h57.6V576h-57.6v-57.6Z"/></mask><path fill="#D0D5DD" d="M518.4 576v.6h.6v-.6h-.6Zm-.6-57.6V576h1.2v-57.6h-1.2Zm.6 57h-57.6v1.2h57.6v-1.2Z" mask="url(#bX)"/><mask id="bY" fill="#fff"><path d="M518.4 518.4H576V576h-57.6v-57.6Z"/></mask><path fill="#D0D5DD" d="M576 576v.6h.6v-.6h-.6Zm-.6-57.6V576h1.2v-57.6h-1.2Zm.6 57h-57.6v1.2H576v-1.2Z" mask="url(#bY)"/><mask id="bZ" fill="#fff"><path d="M576 518.4h57.6V576H576v-57.6Z"/></mask><path fill="#D0D5DD" d="M633.6 576v.6h.6v-.6h-.6Zm-.6-57.6V576h1.2v-57.6H633Zm.6 57H576v1.2h57.6v-1.2Z" mask="url(#bZ)"/><mask id="ca" fill="#fff"><path d="M633.6 518.4h57.6V576h-57.6v-57.6Z"/></mask><path fill="#D0D5DD" d="M691.2 576v.6h.6v-.6h-.6Zm-.6-57.6V576h1.2v-57.6h-1.2Zm.6 57h-57.6v1.2h57.6v-1.2Z" mask="url(#ca)"/><mask id="cb" fill="#fff"><path d="M691.2 518.4h57.6V576h-57.6v-57.6Z"/></mask><path fill="#D0D5DD" d="M748.8 576v.6h.6v-.6h-.6Zm-.6-57.6V576h1.2v-57.6h-1.2Zm.6 57h-57.6v1.2h57.6v-1.2Z" mask="url(#cb)"/><mask id="cc" fill="#fff"><path d="M748.8 518.4h57.6V576h-57.6v-57.6Z"/></mask><path fill="#D0D5DD" d="M806.4 576v.6h.6v-.6h-.6Zm-.6-57.6V576h1.2v-57.6h-1.2Zm.6 57h-57.6v1.2h57.6v-1.2Z" mask="url(#cc)"/><mask id="cd" fill="#fff"><path d="M806.4 518.4H864V576h-57.6v-57.6Z"/></mask><path fill="#D0D5DD" d="M864 576v.6h.6v-.6h-.6Zm-.6-57.6V576h1.2v-57.6h-1.2Zm.6 57h-57.6v1.2H864v-1.2Z" mask="url(#cd)"/><mask id="ce" fill="#fff"><path d="M864 518.4h57.6V576H864v-57.6Z"/></mask><path fill="#D0D5DD" d="M921.6 576v.6h.6v-.6h-.6Zm-.6-57.6V576h1.2v-57.6H921Zm.6 57H864v1.2h57.6v-1.2Z" mask="url(#ce)"/><mask id="cf" fill="#fff"><path d="M921.6 518.4h57.6V576h-57.6v-57.6Z"/></mask><path fill="#D0D5DD" d="M979.2 576v.6h.6v-.6h-.6Zm-.6-57.6V576h1.2v-57.6h-1.2Zm.6 57h-57.6v1.2h57.6v-1.2Z" mask="url(#cf)"/><mask id="cg" fill="#fff"><path d="M979.2 518.4h57.6V576h-57.6v-57.6Z"/></mask><path fill="#F2F4F7" d="M979.2 518.4h57.6V576h-57.6v-57.6Z"/><path fill="#D0D5DD" d="M1036.8 576v.6h.6v-.6h-.6Zm-.6-57.6V576h1.2v-57.6h-1.2Zm.6 57h-57.6v1.2h57.6v-1.2Z" mask="url(#cg)"/><mask id="ch" fill="#fff"><path d="M115.2 576h57.6v57.6h-57.6V576Z"/></mask><path fill="#D0D5DD" d="M172.8 633.6v.6h.6v-.6h-.6Zm-.6-57.6v57.6h1.2V576h-1.2Zm.6 57h-57.6v1.2h57.6V633Z" mask="url(#ch)"/><mask id="ci" fill="#fff"><path d="M172.8 576h57.6v57.6h-57.6V576Z"/></mask><path fill="#D0D5DD" d="M230.4 633.6v.6h.6v-.6h-.6Zm-.6-57.6v57.6h1.2V576h-1.2Zm.6 57h-57.6v1.2h57.6V633Z" mask="url(#ci)"/><mask id="cj" fill="#fff"><path d="M230.4 576H288v57.6h-57.6V576Z"/></mask><path fill="#D0D5DD" d="M288 633.6v.6h.6v-.6h-.6Zm-.6-57.6v57.6h1.2V576h-1.2Zm.6 57h-57.6v1.2H288V633Z" mask="url(#cj)"/><mask id="ck" fill="#fff"><path d="M288 576h57.6v57.6H288V576Z"/></mask><path fill="#D0D5DD" d="M345.6 633.6v.6h.6v-.6h-.6ZM345 576v57.6h1.2V576H345Zm.6 57H288v1.2h57.6V633Z" mask="url(#ck)"/><mask id="cl" fill="#fff"><path d="M345.6 576h57.6v57.6h-57.6V576Z"/></mask><path fill="#F2F4F7" d="M345.6 576h57.6v57.6h-57.6V576Z"/><path fill="#D0D5DD" d="M403.2 633.6v.6h.6v-.6h-.6Zm-.6-57.6v57.6h1.2V576h-1.2Zm.6 57h-57.6v1.2h57.6V633Z" mask="url(#cl)"/><mask id="cm" fill="#fff"><path d="M403.2 576h57.6v57.6h-57.6V576Z"/></mask><path fill="#D0D5DD" d="M460.8 633.6v.6h.6v-.6h-.6Zm-.6-57.6v57.6h1.2V576h-1.2Zm.6 57h-57.6v1.2h57.6V633Z" mask="url(#cm)"/><mask id="cn" fill="#fff"><path d="M460.8 576h57.6v57.6h-57.6V576Z"/></mask><path fill="#D0D5DD" d="M518.4 633.6v.6h.6v-.6h-.6Zm-.6-57.6v57.6h1.2V576h-1.2Zm.6 57h-57.6v1.2h57.6V633Z" mask="url(#cn)"/><mask id="co" fill="#fff"><path d="M518.4 576H576v57.6h-57.6V576Z"/></mask><path fill="#D0D5DD" d="M576 633.6v.6h.6v-.6h-.6Zm-.6-57.6v57.6h1.2V576h-1.2Zm.6 57h-57.6v1.2H576V633Z" mask="url(#co)"/><mask id="cp" fill="#fff"><path d="M576 576h57.6v57.6H576V576Z"/></mask><path fill="#F2F4F7" d="M576 576h57.6v57.6H576V576Z"/><path fill="#D0D5DD" d="M633.6 633.6v.6h.6v-.6h-.6ZM633 576v57.6h1.2V576H633Zm.6 57H576v1.2h57.6V633Z" mask="url(#cp)"/><mask id="cq" fill="#fff"><path d="M633.6 576h57.6v57.6h-57.6V576Z"/></mask><path fill="#D0D5DD" d="M691.2 633.6v.6h.6v-.6h-.6Zm-.6-57.6v57.6h1.2V576h-1.2Zm.6 57h-57.6v1.2h57.6V633Z" mask="url(#cq)"/><mask id="cr" fill="#fff"><path d="M691.2 576h57.6v57.6h-57.6V576Z"/></mask><path fill="#D0D5DD" d="M748.8 633.6v.6h.6v-.6h-.6Zm-.6-57.6v57.6h1.2V576h-1.2Zm.6 57h-57.6v1.2h57.6V633Z" mask="url(#cr)"/><mask id="cs" fill="#fff"><path d="M748.8 576h57.6v57.6h-57.6V576Z"/></mask><path fill="#D0D5DD" d="M806.4 633.6v.6h.6v-.6h-.6Zm-.6-57.6v57.6h1.2V576h-1.2Zm.6 57h-57.6v1.2h57.6V633Z" mask="url(#cs)"/><mask id="ct" fill="#fff"><path d="M806.4 576H864v57.6h-57.6V576Z"/></mask><path fill="#D0D5DD" d="M864 633.6v.6h.6v-.6h-.6Zm-.6-57.6v57.6h1.2V576h-1.2Zm.6 57h-57.6v1.2H864V633Z" mask="url(#ct)"/><mask id="cu" fill="#fff"><path d="M864 576h57.6v57.6H864V576Z"/></mask><path fill="#D0D5DD" d="M921.6 633.6v.6h.6v-.6h-.6ZM921 576v57.6h1.2V576H921Zm.6 57H864v1.2h57.6V633Z" mask="url(#cu)"/><mask id="cv" fill="#fff"><path d="M921.6 576h57.6v57.6h-57.6V576Z"/></mask><path fill="#D0D5DD" d="M979.2 633.6v.6h.6v-.6h-.6Zm-.6-57.6v57.6h1.2V576h-1.2Zm.6 57h-57.6v1.2h57.6V633Z" mask="url(#cv)"/><mask id="cw" fill="#fff"><path d="M979.2 576h57.6v57.6h-57.6V576Z"/></mask><path fill="#D0D5DD" d="M1036.8 633.6v.6h.6v-.6h-.6Zm-.6-57.6v57.6h1.2V576h-1.2Zm.6 57h-57.6v1.2h57.6V633Z" mask="url(#cw)"/><mask id="cx" fill="#fff"><path d="M115.2 633.6h57.6v57.6h-57.6v-57.6Z"/></mask><path fill="#F2F4F7" d="M115.2 633.6h57.6v57.6h-57.6v-57.6Z"/><path fill="#D0D5DD" d="M172.8 691.2v.6h.6v-.6h-.6Zm-.6-57.6v57.6h1.2v-57.6h-1.2Zm.6 57h-57.6v1.2h57.6v-1.2Z" mask="url(#cx)"/><mask id="cy" fill="#fff"><path d="M172.8 633.6h57.6v57.6h-57.6v-57.6Z"/></mask><path fill="#D0D5DD" d="M230.4 691.2v.6h.6v-.6h-.6Zm-.6-57.6v57.6h1.2v-57.6h-1.2Zm.6 57h-57.6v1.2h57.6v-1.2Z" mask="url(#cy)"/><mask id="cz" fill="#fff"><path d="M230.4 633.6H288v57.6h-57.6v-57.6Z"/></mask><path fill="#D0D5DD" d="M288 691.2v.6h.6v-.6h-.6Zm-.6-57.6v57.6h1.2v-57.6h-1.2Zm.6 57h-57.6v1.2H288v-1.2Z" mask="url(#cz)"/><mask id="cA" fill="#fff"><path d="M288 633.6h57.6v57.6H288v-57.6Z"/></mask><path fill="#D0D5DD" d="M345.6 691.2v.6h.6v-.6h-.6Zm-.6-57.6v57.6h1.2v-57.6H345Zm.6 57H288v1.2h57.6v-1.2Z" mask="url(#cA)"/><mask id="cB" fill="#fff"><path d="M345.6 633.6h57.6v57.6h-57.6v-57.6Z"/></mask><path fill="#D0D5DD" d="M403.2 691.2v.6h.6v-.6h-.6Zm-.6-57.6v57.6h1.2v-57.6h-1.2Zm.6 57h-57.6v1.2h57.6v-1.2Z" mask="url(#cB)"/><mask id="cC" fill="#fff"><path d="M403.2 633.6h57.6v57.6h-57.6v-57.6Z"/></mask><path fill="#D0D5DD" d="M460.8 691.2v.6h.6v-.6h-.6Zm-.6-57.6v57.6h1.2v-57.6h-1.2Zm.6 57h-57.6v1.2h57.6v-1.2Z" mask="url(#cC)"/><mask id="cD" fill="#fff"><path d="M460.8 633.6h57.6v57.6h-57.6v-57.6Z"/></mask><path fill="#D0D5DD" d="M518.4 691.2v.6h.6v-.6h-.6Zm-.6-57.6v57.6h1.2v-57.6h-1.2Zm.6 57h-57.6v1.2h57.6v-1.2Z" mask="url(#cD)"/><mask id="cE" fill="#fff"><path d="M518.4 633.6H576v57.6h-57.6v-57.6Z"/></mask><path fill="#D0D5DD" d="M576 691.2v.6h.6v-.6h-.6Zm-.6-57.6v57.6h1.2v-57.6h-1.2Zm.6 57h-57.6v1.2H576v-1.2Z" mask="url(#cE)"/><mask id="cF" fill="#fff"><path d="M576 633.6h57.6v57.6H576v-57.6Z"/></mask><path fill="#D0D5DD" d="M633.6 691.2v.6h.6v-.6h-.6Zm-.6-57.6v57.6h1.2v-57.6H633Zm.6 57H576v1.2h57.6v-1.2Z" mask="url(#cF)"/><mask id="cG" fill="#fff"><path d="M633.6 633.6h57.6v57.6h-57.6v-57.6Z"/></mask><path fill="#D0D5DD" d="M691.2 691.2v.6h.6v-.6h-.6Zm-.6-57.6v57.6h1.2v-57.6h-1.2Zm.6 57h-57.6v1.2h57.6v-1.2Z" mask="url(#cG)"/><mask id="cH" fill="#fff"><path d="M691.2 633.6h57.6v57.6h-57.6v-57.6Z"/></mask><path fill="#D0D5DD" d="M748.8 691.2v.6h.6v-.6h-.6Zm-.6-57.6v57.6h1.2v-57.6h-1.2Zm.6 57h-57.6v1.2h57.6v-1.2Z" mask="url(#cH)"/><mask id="cI" fill="#fff"><path d="M748.8 633.6h57.6v57.6h-57.6v-57.6Z"/></mask><path fill="#D0D5DD" d="M806.4 691.2v.6h.6v-.6h-.6Zm-.6-57.6v57.6h1.2v-57.6h-1.2Zm.6 57h-57.6v1.2h57.6v-1.2Z" mask="url(#cI)"/><mask id="cJ" fill="#fff"><path d="M806.4 633.6H864v57.6h-57.6v-57.6Z"/></mask><path fill="#F2F4F7" d="M806.4 633.6H864v57.6h-57.6v-57.6Z"/><path fill="#D0D5DD" d="M864 691.2v.6h.6v-.6h-.6Zm-.6-57.6v57.6h1.2v-57.6h-1.2Zm.6 57h-57.6v1.2H864v-1.2Z" mask="url(#cJ)"/><mask id="cK" fill="#fff"><path d="M864 633.6h57.6v57.6H864v-57.6Z"/></mask><path fill="#D0D5DD" d="M921.6 691.2v.6h.6v-.6h-.6Zm-.6-57.6v57.6h1.2v-57.6H921Zm.6 57H864v1.2h57.6v-1.2Z" mask="url(#cK)"/><mask id="cL" fill="#fff"><path d="M921.6 633.6h57.6v57.6h-57.6v-57.6Z"/></mask><path fill="#D0D5DD" d="M979.2 691.2v.6h.6v-.6h-.6Zm-.6-57.6v57.6h1.2v-57.6h-1.2Zm.6 57h-57.6v1.2h57.6v-1.2Z" mask="url(#cL)"/><mask id="cM" fill="#fff"><path d="M979.2 633.6h57.6v57.6h-57.6v-57.6Z"/></mask><path fill="#D0D5DD" d="M1036.8 691.2v.6h.6v-.6h-.6Zm-.6-57.6v57.6h1.2v-57.6h-1.2Zm.6 57h-57.6v1.2h57.6v-1.2Z" mask="url(#cM)"/><mask id="cN" fill="#fff"><path d="M115.2 691.2h57.6v57.6h-57.6v-57.6Z"/></mask><path fill="#D0D5DD" d="M172.8 748.8v.6h.6v-.6h-.6Zm-.6-57.6v57.6h1.2v-57.6h-1.2Zm.6 57h-57.6v1.2h57.6v-1.2Z" mask="url(#cN)"/><mask id="cO" fill="#fff"><path d="M172.8 691.2h57.6v57.6h-57.6v-57.6Z"/></mask><path fill="#D0D5DD" d="M230.4 748.8v.6h.6v-.6h-.6Zm-.6-57.6v57.6h1.2v-57.6h-1.2Zm.6 57h-57.6v1.2h57.6v-1.2Z" mask="url(#cO)"/><mask id="cP" fill="#fff"><path d="M230.4 691.2H288v57.6h-57.6v-57.6Z"/></mask><path fill="#D0D5DD" d="M288 748.8v.6h.6v-.6h-.6Zm-.6-57.6v57.6h1.2v-57.6h-1.2Zm.6 57h-57.6v1.2H288v-1.2Z" mask="url(#cP)"/><mask id="cQ" fill="#fff"><path d="M288 691.2h57.6v57.6H288v-57.6Z"/></mask><path fill="#D0D5DD" d="M345.6 748.8v.6h.6v-.6h-.6Zm-.6-57.6v57.6h1.2v-57.6H345Zm.6 57H288v1.2h57.6v-1.2Z" mask="url(#cQ)"/><mask id="cR" fill="#fff"><path d="M345.6 691.2h57.6v57.6h-57.6v-57.6Z"/></mask><path fill="#D0D5DD" d="M403.2 748.8v.6h.6v-.6h-.6Zm-.6-57.6v57.6h1.2v-57.6h-1.2Zm.6 57h-57.6v1.2h57.6v-1.2Z" mask="url(#cR)"/><mask id="cS" fill="#fff"><path d="M403.2 691.2h57.6v57.6h-57.6v-57.6Z"/></mask><path fill="#D0D5DD" d="M460.8 748.8v.6h.6v-.6h-.6Zm-.6-57.6v57.6h1.2v-57.6h-1.2Zm.6 57h-57.6v1.2h57.6v-1.2Z" mask="url(#cS)"/><mask id="cT" fill="#fff"><path d="M460.8 691.2h57.6v57.6h-57.6v-57.6Z"/></mask><path fill="#F2F4F7" d="M460.8 691.2h57.6v57.6h-57.6v-57.6Z"/><path fill="#D0D5DD" d="M518.4 748.8v.6h.6v-.6h-.6Zm-.6-57.6v57.6h1.2v-57.6h-1.2Zm.6 57h-57.6v1.2h57.6v-1.2Z" mask="url(#cT)"/><mask id="cU" fill="#fff"><path d="M518.4 691.2H576v57.6h-57.6v-57.6Z"/></mask><path fill="#D0D5DD" d="M576 748.8v.6h.6v-.6h-.6Zm-.6-57.6v57.6h1.2v-57.6h-1.2Zm.6 57h-57.6v1.2H576v-1.2Z" mask="url(#cU)"/><mask id="cV" fill="#fff"><path d="M576 691.2h57.6v57.6H576v-57.6Z"/></mask><path fill="#D0D5DD" d="M633.6 748.8v.6h.6v-.6h-.6Zm-.6-57.6v57.6h1.2v-57.6H633Zm.6 57H576v1.2h57.6v-1.2Z" mask="url(#cV)"/><mask id="cW" fill="#fff"><path d="M633.6 691.2h57.6v57.6h-57.6v-57.6Z"/></mask><path fill="#D0D5DD" d="M691.2 748.8v.6h.6v-.6h-.6Zm-.6-57.6v57.6h1.2v-57.6h-1.2Zm.6 57h-57.6v1.2h57.6v-1.2Z" mask="url(#cW)"/><mask id="cX" fill="#fff"><path d="M691.2 691.2h57.6v57.6h-57.6v-57.6Z"/></mask><path fill="#D0D5DD" d="M748.8 748.8v.6h.6v-.6h-.6Zm-.6-57.6v57.6h1.2v-57.6h-1.2Zm.6 57h-57.6v1.2h57.6v-1.2Z" mask="url(#cX)"/><mask id="cY" fill="#fff"><path d="M748.8 691.2h57.6v57.6h-57.6v-57.6Z"/></mask><path fill="#D0D5DD" d="M806.4 748.8v.6h.6v-.6h-.6Zm-.6-57.6v57.6h1.2v-57.6h-1.2Zm.6 57h-57.6v1.2h57.6v-1.2Z" mask="url(#cY)"/><mask id="cZ" fill="#fff"><path d="M806.4 691.2H864v57.6h-57.6v-57.6Z"/></mask><path fill="#D0D5DD" d="M864 748.8v.6h.6v-.6h-.6Zm-.6-57.6v57.6h1.2v-57.6h-1.2Zm.6 57h-57.6v1.2H864v-1.2Z" mask="url(#cZ)"/><mask id="da" fill="#fff"><path d="M864 691.2h57.6v57.6H864v-57.6Z"/></mask><path fill="#D0D5DD" d="M921.6 748.8v.6h.6v-.6h-.6Zm-.6-57.6v57.6h1.2v-57.6H921Zm.6 57H864v1.2h57.6v-1.2Z" mask="url(#da)"/><mask id="db" fill="#fff"><path d="M921.6 691.2h57.6v57.6h-57.6v-57.6Z"/></mask><path fill="#D0D5DD" d="M979.2 748.8v.6h.6v-.6h-.6Zm-.6-57.6v57.6h1.2v-57.6h-1.2Zm.6 57h-57.6v1.2h57.6v-1.2Z" mask="url(#db)"/><mask id="dc" fill="#fff"><path d="M979.2 691.2h57.6v57.6h-57.6v-57.6Z"/></mask><path fill="#D0D5DD" d="M1036.8 748.8v.6h.6v-.6h-.6Zm-.6-57.6v57.6h1.2v-57.6h-1.2Zm.6 57h-57.6v1.2h57.6v-1.2Z" mask="url(#dc)"/><mask id="dd" fill="#fff"><path d="M115.2 748.8h57.6v57.6h-57.6v-57.6Z"/></mask><path fill="#D0D5DD" d="M172.8 806.4v.6h.6v-.6h-.6Zm-.6-57.6v57.6h1.2v-57.6h-1.2Zm.6 57h-57.6v1.2h57.6v-1.2Z" mask="url(#dd)"/><mask id="de" fill="#fff"><path d="M172.8 748.8h57.6v57.6h-57.6v-57.6Z"/></mask><path fill="#D0D5DD" d="M230.4 806.4v.6h.6v-.6h-.6Zm-.6-57.6v57.6h1.2v-57.6h-1.2Zm.6 57h-57.6v1.2h57.6v-1.2Z" mask="url(#de)"/><mask id="df" fill="#fff"><path d="M230.4 748.8H288v57.6h-57.6v-57.6Z"/></mask><path fill="#D0D5DD" d="M288 806.4v.6h.6v-.6h-.6Zm-.6-57.6v57.6h1.2v-57.6h-1.2Zm.6 57h-57.6v1.2H288v-1.2Z" mask="url(#df)"/><mask id="dg" fill="#fff"><path d="M288 748.8h57.6v57.6H288v-57.6Z"/></mask><path fill="#F2F4F7" d="M288 748.8h57.6v57.6H288v-57.6Z"/><path fill="#D0D5DD" d="M345.6 806.4v.6h.6v-.6h-.6Zm-.6-57.6v57.6h1.2v-57.6H345Zm.6 57H288v1.2h57.6v-1.2Z" mask="url(#dg)"/><mask id="dh" fill="#fff"><path d="M345.6 748.8h57.6v57.6h-57.6v-57.6Z"/></mask><path fill="#D0D5DD" d="M403.2 806.4v.6h.6v-.6h-.6Zm-.6-57.6v57.6h1.2v-57.6h-1.2Zm.6 57h-57.6v1.2h57.6v-1.2Z" mask="url(#dh)"/><mask id="di" fill="#fff"><path d="M403.2 748.8h57.6v57.6h-57.6v-57.6Z"/></mask><path fill="#D0D5DD" d="M460.8 806.4v.6h.6v-.6h-.6Zm-.6-57.6v57.6h1.2v-57.6h-1.2Zm.6 57h-57.6v1.2h57.6v-1.2Z" mask="url(#di)"/><mask id="dj" fill="#fff"><path d="M460.8 748.8h57.6v57.6h-57.6v-57.6Z"/></mask><path fill="#D0D5DD" d="M518.4 806.4v.6h.6v-.6h-.6Zm-.6-57.6v57.6h1.2v-57.6h-1.2Zm.6 57h-57.6v1.2h57.6v-1.2Z" mask="url(#dj)"/><mask id="dk" fill="#fff"><path d="M518.4 748.8H576v57.6h-57.6v-57.6Z"/></mask><path fill="#D0D5DD" d="M576 806.4v.6h.6v-.6h-.6Zm-.6-57.6v57.6h1.2v-57.6h-1.2Zm.6 57h-57.6v1.2H576v-1.2Z" mask="url(#dk)"/><mask id="dl" fill="#fff"><path d="M576 748.8h57.6v57.6H576v-57.6Z"/></mask><path fill="#D0D5DD" d="M633.6 806.4v.6h.6v-.6h-.6Zm-.6-57.6v57.6h1.2v-57.6H633Zm.6 57H576v1.2h57.6v-1.2Z" mask="url(#dl)"/><mask id="dm" fill="#fff"><path d="M633.6 748.8h57.6v57.6h-57.6v-57.6Z"/></mask><path fill="#F2F4F7" d="M633.6 748.8h57.6v57.6h-57.6v-57.6Z"/><path fill="#D0D5DD" d="M691.2 806.4v.6h.6v-.6h-.6Zm-.6-57.6v57.6h1.2v-57.6h-1.2Zm.6 57h-57.6v1.2h57.6v-1.2Z" mask="url(#dm)"/><mask id="dn" fill="#fff"><path d="M691.2 748.8h57.6v57.6h-57.6v-57.6Z"/></mask><path fill="#D0D5DD" d="M748.8 806.4v.6h.6v-.6h-.6Zm-.6-57.6v57.6h1.2v-57.6h-1.2Zm.6 57h-57.6v1.2h57.6v-1.2Z" mask="url(#dn)"/><mask id="do" fill="#fff"><path d="M748.8 748.8h57.6v57.6h-57.6v-57.6Z"/></mask><path fill="#D0D5DD" d="M806.4 806.4v.6h.6v-.6h-.6Zm-.6-57.6v57.6h1.2v-57.6h-1.2Zm.6 57h-57.6v1.2h57.6v-1.2Z" mask="url(#do)"/><mask id="dp" fill="#fff"><path d="M806.4 748.8H864v57.6h-57.6v-57.6Z"/></mask><path fill="#D0D5DD" d="M864 806.4v.6h.6v-.6h-.6Zm-.6-57.6v57.6h1.2v-57.6h-1.2Zm.6 57h-57.6v1.2H864v-1.2Z" mask="url(#dp)"/><mask id="dq" fill="#fff"><path d="M864 748.8h57.6v57.6H864v-57.6Z"/></mask><path fill="#D0D5DD" d="M921.6 806.4v.6h.6v-.6h-.6Zm-.6-57.6v57.6h1.2v-57.6H921Zm.6 57H864v1.2h57.6v-1.2Z" mask="url(#dq)"/><mask id="dr" fill="#fff"><path d="M921.6 748.8h57.6v57.6h-57.6v-57.6Z"/></mask><path fill="#D0D5DD" d="M979.2 806.4v.6h.6v-.6h-.6Zm-.6-57.6v57.6h1.2v-57.6h-1.2Zm.6 57h-57.6v1.2h57.6v-1.2Z" mask="url(#dr)"/><mask id="ds" fill="#fff"><path d="M979.2 748.8h57.6v57.6h-57.6v-57.6Z"/></mask><path fill="#D0D5DD" d="M1036.8 806.4v.6h.6v-.6h-.6Zm-.6-57.6v57.6h1.2v-57.6h-1.2Zm.6 57h-57.6v1.2h57.6v-1.2Z" mask="url(#ds)"/><mask id="dt" fill="#fff"><path d="M115.2 806.4h57.6V864h-57.6v-57.6Z"/></mask><path fill="#D0D5DD" d="M172.8 864v.6h.6v-.6h-.6Zm-.6-57.6V864h1.2v-57.6h-1.2Zm.6 57h-57.6v1.2h57.6v-1.2Z" mask="url(#dt)"/><mask id="du" fill="#fff"><path d="M172.8 806.4h57.6V864h-57.6v-57.6Z"/></mask><path fill="#F2F4F7" d="M172.8 806.4h57.6V864h-57.6v-57.6Z"/><path fill="#D0D5DD" d="M230.4 864v.6h.6v-.6h-.6Zm-.6-57.6V864h1.2v-57.6h-1.2Zm.6 57h-57.6v1.2h57.6v-1.2Z" mask="url(#du)"/><mask id="dv" fill="#fff"><path d="M230.4 806.4H288V864h-57.6v-57.6Z"/></mask><path fill="#D0D5DD" d="M288 864v.6h.6v-.6h-.6Zm-.6-57.6V864h1.2v-57.6h-1.2Zm.6 57h-57.6v1.2H288v-1.2Z" mask="url(#dv)"/><mask id="dw" fill="#fff"><path d="M288 806.4h57.6V864H288v-57.6Z"/></mask><path fill="#D0D5DD" d="M345.6 864v.6h.6v-.6h-.6Zm-.6-57.6V864h1.2v-57.6H345Zm.6 57H288v1.2h57.6v-1.2Z" mask="url(#dw)"/><mask id="dx" fill="#fff"><path d="M345.6 806.4h57.6V864h-57.6v-57.6Z"/></mask><path fill="#D0D5DD" d="M403.2 864v.6h.6v-.6h-.6Zm-.6-57.6V864h1.2v-57.6h-1.2Zm.6 57h-57.6v1.2h57.6v-1.2Z" mask="url(#dx)"/><mask id="dy" fill="#fff"><path d="M403.2 806.4h57.6V864h-57.6v-57.6Z"/></mask><path fill="#D0D5DD" d="M460.8 864v.6h.6v-.6h-.6Zm-.6-57.6V864h1.2v-57.6h-1.2Zm.6 57h-57.6v1.2h57.6v-1.2Z" mask="url(#dy)"/><mask id="dz" fill="#fff"><path d="M460.8 806.4h57.6V864h-57.6v-57.6Z"/></mask><path fill="#D0D5DD" d="M518.4 864v.6h.6v-.6h-.6Zm-.6-57.6V864h1.2v-57.6h-1.2Zm.6 57h-57.6v1.2h57.6v-1.2Z" mask="url(#dz)"/><mask id="dA" fill="#fff"><path d="M518.4 806.4H576V864h-57.6v-57.6Z"/></mask><path fill="#D0D5DD" d="M576 864v.6h.6v-.6h-.6Zm-.6-57.6V864h1.2v-57.6h-1.2Zm.6 57h-57.6v1.2H576v-1.2Z" mask="url(#dA)"/><mask id="dB" fill="#fff"><path d="M576 806.4h57.6V864H576v-57.6Z"/></mask><path fill="#D0D5DD" d="M633.6 864v.6h.6v-.6h-.6Zm-.6-57.6V864h1.2v-57.6H633Zm.6 57H576v1.2h57.6v-1.2Z" mask="url(#dB)"/><mask id="dC" fill="#fff"><path d="M633.6 806.4h57.6V864h-57.6v-57.6Z"/></mask><path fill="#D0D5DD" d="M691.2 864v.6h.6v-.6h-.6Zm-.6-57.6V864h1.2v-57.6h-1.2Zm.6 57h-57.6v1.2h57.6v-1.2Z" mask="url(#dC)"/><mask id="dD" fill="#fff"><path d="M691.2 806.4h57.6V864h-57.6v-57.6Z"/></mask><path fill="#D0D5DD" d="M748.8 864v.6h.6v-.6h-.6Zm-.6-57.6V864h1.2v-57.6h-1.2Zm.6 57h-57.6v1.2h57.6v-1.2Z" mask="url(#dD)"/><mask id="dE" fill="#fff"><path d="M748.8 806.4h57.6V864h-57.6v-57.6Z"/></mask><path fill="#D0D5DD" d="M806.4 864v.6h.6v-.6h-.6Zm-.6-57.6V864h1.2v-57.6h-1.2Zm.6 57h-57.6v1.2h57.6v-1.2Z" mask="url(#dE)"/><mask id="dF" fill="#fff"><path d="M806.4 806.4H864V864h-57.6v-57.6Z"/></mask><path fill="#D0D5DD" d="M864 864v.6h.6v-.6h-.6Zm-.6-57.6V864h1.2v-57.6h-1.2Zm.6 57h-57.6v1.2H864v-1.2Z" mask="url(#dF)"/><mask id="dG" fill="#fff"><path d="M864 806.4h57.6V864H864v-57.6Z"/></mask><path fill="#D0D5DD" d="M921.6 864v.6h.6v-.6h-.6Zm-.6-57.6V864h1.2v-57.6H921Zm.6 57H864v1.2h57.6v-1.2Z" mask="url(#dG)"/><mask id="dH" fill="#fff"><path d="M921.6 806.4h57.6V864h-57.6v-57.6Z"/></mask><path fill="#F2F4F7" d="M921.6 806.4h57.6V864h-57.6v-57.6Z"/><path fill="#D0D5DD" d="M979.2 864v.6h.6v-.6h-.6Zm-.6-57.6V864h1.2v-57.6h-1.2Zm.6 57h-57.6v1.2h57.6v-1.2Z" mask="url(#dH)"/><mask id="dI" fill="#fff"><path d="M979.2 806.4h57.6V864h-57.6v-57.6Z"/></mask><path fill="#D0D5DD" d="M1036.8 864v.6h.6v-.6h-.6Zm-.6-57.6V864h1.2v-57.6h-1.2Zm.6 57h-57.6v1.2h57.6v-1.2Z" mask="url(#dI)"/></g><path stroke="#D0D5DD" stroke-width=".6" d="M.3.3h1151.4v863.4H.3z"/></g><defs><radialGradient id="a" cx="0" cy="0" r="1" gradientTransform="matrix(0 864 -450.953 0 432 0)" gradientUnits="userSpaceOnUse"><stop/><stop offset=".953" stop-opacity="0"/></radialGradient><clipPath id="c"><path fill="#fff" d="M0 0h1152v864H0z"/></clipPath></defs></svg>